<svg version="1.1" id="Layer_1" xmlns="http://www.w3.org/2000/svg" xmlns:xlink="http://www.w3.org/1999/xlink" x="0px" y="0px"
     width="100%" viewBox="0 0 512 512" enable-background="new 0 0 512 512" xml:space="preserve">
<path fill="#c90606" opacity="1.000000" stroke="none" 
    d="
M252.234848,13.006388 
    C283.369476,13.110316 312.597168,19.207956 339.734100,33.937138 
    C359.529236,44.681393 376.739227,58.537537 391.385284,75.754913 
    C407.522125,94.724861 419.430298,115.984322 427.157440,139.541046 
    C432.400787,155.525787 435.211884,171.945435 436.221466,188.877472 
    C437.731720,214.206116 433.980682,238.841751 428.731476,263.337830 
    C421.640015,296.430725 408.614502,327.374237 392.426239,356.936340 
    C379.764374,380.058685 365.261780,402.073456 348.178772,422.221130 
    C337.380737,434.956360 326.473694,447.666504 314.745239,459.527313 
    C302.223724,472.190216 289.493500,484.922211 275.328247,495.599304 
    C263.483002,504.527679 246.445114,503.124939 235.291946,493.413605 
    C218.901138,479.141724 202.926712,464.221863 188.155472,448.297424 
    C162.655975,420.807190 140.436447,390.759552 122.269760,357.791809 
    C111.270370,337.830872 101.743690,317.222321 94.502724,295.673889 
    C88.281433,277.159912 82.941742,258.309326 80.984276,238.733765 
    C79.885223,227.742813 79.063766,216.724167 77.972542,205.732376 
    C75.468109,180.505341 79.563354,156.178970 87.824509,132.413528 
    C94.428627,113.415024 104.391441,96.349510 116.826157,80.538338 
    C133.906509,58.820057 155.188202,42.555168 179.887650,30.633547 
    C196.874237,22.434679 214.754578,17.002361 233.586624,14.983930 
    C239.645935,14.334490 245.703461,13.668330 252.234848,13.006388 
M201.545288,128.979034 
    C197.962830,132.882690 194.148300,136.599930 190.837585,140.721848 
    C175.454468,159.874191 169.508163,181.902069 173.282059,205.971603 
    C176.786438,228.322113 187.747147,246.890350 206.094788,260.513397 
    C225.352737,274.812317 246.997742,280.855042 270.819305,276.819641 
    C293.441895,272.987366 311.742493,261.394653 325.298248,243.001114 
    C339.312134,223.985886 345.001617,202.406891 340.750244,179.046890 
    C336.806610,157.377777 326.224487,139.167114 308.304138,125.874008 
    C285.451904,108.922501 260.280304,103.831200 232.711548,111.951385 
    C221.310318,115.309555 211.294098,121.145416 201.545288,128.979034 
z"/>
</svg>

